<svg xmlns="http://www.w3.org/2000/svg" width="1039.23" height="1200" viewBox="0 0 1039.23 1200"><metadata><rdf:RDF xmlns:rdf="http://www.w3.org/1999/02/22-rdf-syntax-ns#" xmlns:dc="http://purl.org/dc/elements/1.1/"><rdf:Description><dc:creator>RealFaviconGenerator</dc:creator><dc:source>https://realfavicongenerator.net</dc:source></rdf:Description></rdf:RDF></metadata><defs>
    <linearGradient id="bg" x1="0" y1="0" x2="0.6" y2="1">
      <stop offset="0%" stop-color="#1E40AF"></stop>
      <stop offset="100%" stop-color="#0C1440"></stop>
    </linearGradient>
    <linearGradient id="ringGrad" x1="0" y1="0" x2="0" y2="1">
      <stop offset="0%" stop-color="#D6EAFF"></stop>
      <stop offset="100%" stop-color="#4C8DF0"></stop>
    </linearGradient>
    <clipPath id="hexClip"><path d="M 519.62 0.00 L 1039.23 300.00 L 1039.23 900.00 L 519.62 1200.00 L 0.00 900.00 L 0.00 300.00 Z"></path></clipPath>
  </defs><path d="M 519.62 0.00 L 1039.23 300.00 L 1039.23 900.00 L 519.62 1200.00 L 0.00 900.00 L 0.00 300.00 Z" fill="url(#bg)"></path><g clip-path="url(#hexClip)">
    <!-- halo ring -->
    <circle cx="519.6" cy="470.0" r="235.0" fill="none" stroke="url(#ringGrad)" stroke-width="14" opacity="0.95"></circle>

    <!-- correlation chords -->
    <path d="M 519.6 235.0 Q 551.2 456.9 685.8 636.2" fill="none" stroke="#EAF4FF" stroke-width="7.0" stroke-linecap="round" opacity="0.85"></path>
    <path d="M 685.8 303.8 Q 506.5 438.4 284.6 470.0" fill="none" stroke="#5EA8F2" stroke-width="6.0" stroke-linecap="round" opacity="0.60"></path>
    <path d="M 754.6 470.0 Q 532.7 501.6 353.4 636.2" fill="none" stroke="#F0834D" stroke-width="7.0" stroke-linecap="round" opacity="0.85"></path>
    <path d="M 353.4 303.8 Q 519.6 470.0 685.8 636.2" fill="none" stroke="#2E5FD1" stroke-width="5.0" stroke-linecap="round" opacity="0.50"></path>
    <path d="M 685.8 303.8 Q 551.2 483.1 519.6 705.0" fill="none" stroke="#8FC1F7" stroke-width="6.0" stroke-linecap="round" opacity="0.55"></path>
    <path d="M 519.6 235.0 Q 488.0 456.9 353.4 636.2" fill="none" stroke="#F0834D" stroke-width="5.0" stroke-linecap="round" opacity="0.55"></path>
  </g><text x="519.6" y="860" text-anchor="middle" font-family="Avenir Next, Century Gothic, Futura, Helvetica Neue, Arial, sans-serif" font-size="100" font-weight="500" fill="#F7FAFF" letter-spacing="1.5">circlecorR</text><path d="M 519.62 0.00 L 1039.23 300.00 L 1039.23 900.00 L 519.62 1200.00 L 0.00 900.00 L 0.00 300.00 Z" fill="none" stroke="#9DC4FF" stroke-width="5" opacity="0.45"></path></svg>